<svg xmlns="http://www.w3.org/2000/svg" viewBox="0 0 1800 1100" width="1800" height="1100"><defs><radialGradient id="n0" cx="38" cy="733" r="438" gradientUnits="userSpaceOnUse"><stop offset="0%" stop-color="#3a4d8a" stop-opacity="0.10"/><stop offset="60%" stop-color="#3a4d8a" stop-opacity="0.04"/><stop offset="100%" stop-color="#3a4d8a" stop-opacity="0"/></radialGradient><radialGradient id="n1" cx="1331" cy="118" r="360" gradientUnits="userSpaceOnUse"><stop offset="0%" stop-color="#7a4a9c" stop-opacity="0.10"/><stop offset="60%" stop-color="#7a4a9c" stop-opacity="0.04"/><stop offset="100%" stop-color="#7a4a9c" stop-opacity="0"/></radialGradient><radialGradient id="n2" cx="263" cy="400" r="438" gradientUnits="userSpaceOnUse"><stop offset="0%" stop-color="#2a6a90" stop-opacity="0.10"/><stop offset="60%" stop-color="#2a6a90" stop-opacity="0.04"/><stop offset="100%" stop-color="#2a6a90" stop-opacity="0"/></radialGradient><radialGradient id="n3" cx="536" cy="435" r="234" gradientUnits="userSpaceOnUse"><stop offset="0%" stop-color="#a0586c" stop-opacity="0.10"/><stop offset="60%" stop-color="#a0586c" stop-opacity="0.04"/><stop offset="100%" stop-color="#a0586c" stop-opacity="0"/></radialGradient></defs><rect width="1800" height="1100" fill="#0A0E14"/><rect width="1800" height="1100" fill="url(#n0)"/><rect width="1800" height="1100" fill="url(#n1)"/><rect width="1800" height="1100" fill="url(#n2)"/><rect width="1800" height="1100" fill="url(#n3)"/><circle cx="1542.2" cy="603.4" r="0.35" fill="#fff" opacity="0.42"/><circle cx="1383.0" cy="291.4" r="0.35" fill="#a9b3c7" opacity="0.56"/><circle cx="766.9" cy="635.0" r="1.1" fill="#cfd8e8" opacity="0.21"/><circle cx="503.5" cy="266.5" r="0.7" fill="#fff" opacity="0.25"/><circle cx="506.5" cy="730.8" r="0.7" fill="#cfd8e8" opacity="0.52"/><circle cx="46.5" cy="730.1" r="0.35" fill="#fff" opacity="0.37"/><circle cx="1057.6" cy="318.1" r="0.35" fill="#f5e4c2" opacity="0.48"/><circle cx="1340.8" cy="993.3" r="0.7" fill="#fff" opacity="0.52"/><circle cx="1677.3" cy="418.2" r="0.35" fill="#fff" opacity="0.29"/><circle cx="798.6" cy="35.0" r="0.7" fill="#cfd8e8" opacity="0.41"/><circle cx="475.5" cy="603.0" r="0.35" fill="#fff" opacity="0.29"/><circle cx="810.7" cy="1058.0" r="0.7" fill="#fff" opacity="0.78"/><circle cx="923.7" cy="343.4" r="0.35" fill="#fff" opacity="0.22"/><circle cx="1546.9" cy="498.6" r="1.6" fill="#fff" opacity="0.75"/><circle cx="1401.3" cy="1064.1" r="0.7" fill="#fff" opacity="0.36"/><circle cx="1640.7" cy="1037.0" r="0.35" fill="#fff" opacity="0.30"/><circle cx="65.5" cy="974.1" r="0.35" fill="#fff" opacity="0.28"/><circle cx="1601.8" cy="285.5" r="0.7" fill="#fff" opacity="0.31"/><circle cx="1370.6" cy="390.4" r="0.7" fill="#a9b3c7" opacity="0.19"/><circle cx="30.3" cy="551.8" r="0.35" fill="#cfd8e8" opacity="0.20"/><circle cx="1121.9" cy="979.7" r="0.35" fill="#fff" opacity="0.49"/><circle cx="1748.3" cy="23.7" r="0.35" fill="#f5e4c2" opacity="0.60"/><circle cx="386.3" cy="304.1" r="0.35" fill="#fff" opacity="0.69"/><circle cx="1684.4" cy="340.3" r="0.35" fill="#fff" opacity="0.85"/><circle cx="947.6" cy="622.9" r="0.35" fill="#fff" opacity="0.31"/><circle cx="1337.7" cy="131.0" r="0.35" fill="#fff" opacity="0.73"/><circle cx="1267.2" cy="207.0" r="0.35" fill="#fff" opacity="0.62"/><circle cx="540.5" cy="994.2" r="0.35" fill="#fff" opacity="0.34"/><circle cx="742.2" cy="645.9" r="0.35" fill="#f5e4c2" opacity="0.73"/><circle cx="1793.0" cy="643.4" r="0.35" fill="#cfd8e8" opacity="0.55"/><circle cx="1594.0" cy="1064.8" r="0.35" fill="#cfd8e8" opacity="0.29"/><circle cx="81.6" cy="56.5" r="1.1" fill="#cfd8e8" opacity="0.39"/><circle cx="526.9" cy="966.9" r="0.7" fill="#a9b3c7" opacity="0.77"/><circle cx="550.6" cy="834.4" r="0.35" fill="#cfd8e8" opacity="0.59"/><circle cx="145.8" cy="338.5" r="0.35" fill="#fff" opacity="0.66"/><circle cx="921.5" cy="408.9" r="0.35" fill="#cfd8e8" opacity="0.70"/><circle cx="442.3" cy="585.6" r="0.7" fill="#fff" opacity="0.72"/><circle cx="276.8" cy="543.8" r="0.7" fill="#fff" opacity="0.46"/><circle cx="1060.5" cy="65.7" r="0.7" fill="#a9b3c7" opacity="0.41"/><circle cx="1613.7" cy="318.2" r="0.35" fill="#a9b3c7" opacity="0.40"/><circle cx="1601.4" cy="346.0" r="0.35" fill="#fff" opacity="0.55"/><circle cx="994.6" cy="560.3" r="0.35" fill="#fff" opacity="0.76"/><circle cx="1383.9" cy="367.2" r="0.35" fill="#cfd8e8" opacity="0.46"/><circle cx="1559.7" cy="1038.2" r="0.7" fill="#fff" opacity="0.28"/><circle cx="1370.2" cy="545.2" r="1.6" fill="#cfd8e8" opacity="0.35"/><circle cx="1292.9" cy="626.9" r="0.35" fill="#fff" opacity="0.79"/><circle cx="792.7" cy="613.3" r="0.7" fill="#cfd8e8" opacity="0.28"/><circle cx="1521.9" cy="77.0" r="1.1" fill="#cfd8e8" opacity="0.21"/><circle cx="479.0" cy="434.4" r="0.35" fill="#fff" opacity="0.25"/><circle cx="1629.1" cy="990.9" r="0.35" fill="#fff" opacity="0.48"/><circle cx="1149.2" cy="553.5" r="0.7" fill="#cfd8e8" opacity="0.68"/><circle cx="1317.7" cy="1096.9" r="1.1" fill="#f5e4c2" opacity="0.76"/><circle cx="1279.0" cy="818.0" r="0.7" fill="#fff" opacity="0.47"/><circle cx="87.8" cy="401.3" r="0.35" fill="#cfd8e8" opacity="0.34"/><circle cx="727.3" cy="513.1" r="0.35" fill="#fff" opacity="0.60"/><circle cx="1121.6" cy="422.9" r="0.7" fill="#fff" opacity="0.36"/><circle cx="702.3" cy="1037.4" r="0.35" fill="#fff" opacity="0.80"/><circle cx="206.6" cy="1024.4" r="0.35" fill="#fff" opacity="0.23"/><circle cx="1089.0" cy="111.3" r="0.35" fill="#fff" opacity="0.44"/><circle cx="1389.5" cy="957.1" r="0.35" fill="#cfd8e8" opacity="0.19"/><circle cx="807.2" cy="804.5" r="0.35" fill="#cfd8e8" opacity="0.84"/><circle cx="797.4" cy="943.7" r="0.35" fill="#a9b3c7" opacity="0.53"/><circle cx="766.8" cy="86.3" r="0.35" fill="#fff" opacity="0.37"/><circle cx="403.9" cy="508.3" r="0.35" fill="#fff" opacity="0.21"/><circle cx="775.0" cy="965.1" r="0.7" fill="#cfd8e8" opacity="0.86"/><circle cx="1099.9" cy="918.0" r="0.7" fill="#fff" opacity="0.29"/><circle cx="628.7" cy="79.7" r="0.35" fill="#a9b3c7" opacity="0.67"/><circle cx="989.4" cy="294.2" r="1.1" fill="#fff" opacity="0.38"/><circle cx="1032.7" cy="272.5" r="0.35" fill="#fff" opacity="0.66"/><circle cx="922.5" cy="418.6" r="1.6" fill="#fff" opacity="0.72"/><circle cx="767.8" cy="118.0" r="1.6" fill="#cfd8e8" opacity="0.50"/><circle cx="522.6" cy="117.9" r="0.7" fill="#fff" opacity="0.84"/><circle cx="554.0" cy="375.8" r="0.7" fill="#cfd8e8" opacity="0.74"/><circle cx="1360.4" cy="1003.7" r="0.35" fill="#bcd6ff" opacity="0.59"/><circle cx="1080.5" cy="155.0" r="0.35" fill="#fff" opacity="0.24"/><circle cx="151.4" cy="867.7" r="0.7" fill="#cfd8e8" opacity="0.46"/><circle cx="432.9" cy="572.7" r="0.35" fill="#fff" opacity="0.82"/><circle cx="1168.1" cy="986.1" r="0.7" fill="#fff" opacity="0.61"/><circle cx="553.1" cy="361.9" r="0.35" fill="#f5e4c2" opacity="0.87"/><circle cx="617.9" cy="623.6" r="1.1" fill="#fff" opacity="0.80"/><circle cx="325.2" cy="382.4" r="0.35" fill="#cfd8e8" opacity="0.74"/><circle cx="389.5" cy="47.2" r="0.35" fill="#fff" opacity="0.21"/><circle cx="110.5" cy="410.9" r="0.35" fill="#a9b3c7" opacity="0.62"/><circle cx="329.2" cy="734.1" r="0.35" fill="#fff" opacity="0.68"/><circle cx="915.2" cy="489.2" r="0.7" fill="#fff" opacity="0.25"/><circle cx="63.6" cy="912.9" r="0.35" fill="#fff" opacity="0.61"/><circle cx="1100.7" cy="347.7" r="0.7" fill="#cfd8e8" opacity="0.85"/><circle cx="1214.0" cy="470.5" r="0.35" fill="#fff" opacity="0.76"/><circle cx="347.9" cy="444.7" r="0.35" fill="#fff" opacity="0.75"/><circle cx="1293.6" cy="471.2" r="0.35" fill="#a9b3c7" opacity="0.67"/><circle cx="1583.2" cy="741.5" r="0.35" fill="#fff" opacity="0.52"/><circle cx="769.3" cy="1061.2" r="0.35" fill="#cfd8e8" opacity="0.49"/><circle cx="1740.4" cy="887.3" r="0.35" fill="#bcd6ff" opacity="0.66"/><circle cx="831.4" cy="720.6" r="0.7" fill="#fff" opacity="0.46"/><circle cx="11.1" cy="424.1" r="0.35" fill="#fff" opacity="0.45"/><circle cx="374.5" cy="101.9" r="0.35" fill="#fff" opacity="0.69"/><circle cx="1765.3" cy="1042.7" r="0.35" fill="#cfd8e8" opacity="0.42"/><circle cx="1403.4" cy="85.4" r="0.35" fill="#f5e4c2" opacity="0.73"/><circle cx="600.7" cy="656.2" r="1.1" fill="#cfd8e8" opacity="0.57"/><circle cx="817.2" cy="828.8" r="0.35" fill="#fff" opacity="0.55"/><circle cx="961.5" cy="36.9" r="0.35" fill="#cfd8e8" opacity="0.34"/><circle cx="222.9" cy="895.7" r="0.35" fill="#fff" opacity="0.31"/><circle cx="25.4" cy="817.9" r="0.35" fill="#fff" opacity="0.46"/><circle cx="1146.6" cy="178.4" r="0.35" fill="#cfd8e8" opacity="0.47"/><circle cx="1127.5" cy="344.1" r="0.35" fill="#fff" opacity="0.22"/><circle cx="1744.3" cy="587.7" r="0.35" fill="#a9b3c7" opacity="0.84"/><circle cx="646.6" cy="678.5" r="0.35" fill="#a9b3c7" opacity="0.37"/><circle cx="817.6" cy="109.4" r="0.35" fill="#a9b3c7" opacity="0.30"/><circle cx="960.8" cy="579.9" r="0.7" fill="#fff" opacity="0.29"/><circle cx="411.8" cy="643.2" r="0.35" fill="#a9b3c7" opacity="0.72"/><circle cx="181.5" cy="566.0" r="0.7" fill="#fff" opacity="0.18"/><circle cx="225.9" cy="583.2" r="0.35" fill="#cfd8e8" opacity="0.80"/><circle cx="673.0" cy="435.7" r="0.7" fill="#cfd8e8" opacity="0.31"/><circle cx="1362.1" cy="596.7" r="0.7" fill="#fff" opacity="0.77"/><circle cx="175.8" cy="535.0" r="0.35" fill="#fff" opacity="0.59"/><circle cx="1401.7" cy="343.7" r="0.35" fill="#fff" opacity="0.53"/><circle cx="562.9" cy="639.5" r="0.7" fill="#fff" opacity="0.22"/><circle cx="3.8" cy="1075.6" r="1.1" fill="#a9b3c7" opacity="0.24"/><circle cx="697.3" cy="234.1" r="0.7" fill="#fff" opacity="0.58"/><circle cx="1183.2" cy="297.2" r="0.7" fill="#fff" opacity="0.69"/><circle cx="863.7" cy="1082.5" r="0.35" fill="#fff" opacity="0.75"/><circle cx="292.2" cy="694.5" r="0.35" fill="#fff" opacity="0.44"/><circle cx="1453.3" cy="353.0" r="0.35" fill="#a9b3c7" opacity="0.48"/><circle cx="1674.6" cy="601.9" r="0.7" fill="#fff" opacity="0.73"/><circle cx="256.4" cy="198.0" r="0.7" fill="#a9b3c7" opacity="0.75"/><circle cx="656.0" cy="124.5" r="1.1" fill="#fff" opacity="0.49"/><circle cx="983.0" cy="878.7" r="0.7" fill="#fff" opacity="0.79"/><circle cx="868.1" cy="152.2" r="0.7" fill="#fff" opacity="0.79"/><circle cx="332.0" cy="1019.7" r="0.35" fill="#a9b3c7" opacity="0.52"/><circle cx="1350.8" cy="540.9" r="0.7" fill="#fff" opacity="0.26"/><circle cx="917.9" cy="486.8" r="0.35" fill="#fff" opacity="0.53"/><circle cx="1785.4" cy="659.5" r="0.7" fill="#fff" opacity="0.38"/><circle cx="846.7" cy="216.4" r="0.35" fill="#fff" opacity="0.82"/><circle cx="1788.2" cy="140.4" r="0.35" fill="#fff" opacity="0.27"/><circle cx="154.2" cy="308.1" r="0.7" fill="#f5e4c2" opacity="0.21"/><circle cx="1704.5" cy="612.3" r="0.35" fill="#cfd8e8" opacity="0.36"/><circle cx="982.7" cy="788.1" r="0.35" fill="#f5e4c2" opacity="0.62"/><circle cx="1647.5" cy="644.3" r="0.7" fill="#fff" opacity="0.30"/><circle cx="595.5" cy="753.9" r="0.7" fill="#cfd8e8" opacity="0.20"/><circle cx="735.6" cy="800.2" r="0.35" fill="#fff" opacity="0.60"/><circle cx="342.0" cy="681.6" r="0.7" fill="#fff" opacity="0.76"/><circle cx="387.8" cy="94.0" r="0.35" fill="#fff" opacity="0.86"/><circle cx="1707.8" cy="680.0" r="0.35" fill="#fff" opacity="0.66"/><circle cx="1282.8" cy="668.5" r="0.7" fill="#fff" opacity="0.87"/><circle cx="794.1" cy="433.6" r="1.6" fill="#fff" opacity="0.27"/><circle cx="586.8" cy="328.3" r="0.7" fill="#fff" opacity="0.50"/><circle cx="131.4" cy="143.4" r="0.7" fill="#cfd8e8" opacity="0.46"/><circle cx="223.2" cy="744.6" r="1.1" fill="#fff" opacity="0.21"/><circle cx="998.0" cy="207.8" r="0.35" fill="#fff" opacity="0.42"/><circle cx="1199.8" cy="119.1" r="0.35" fill="#cfd8e8" opacity="0.54"/><circle cx="965.5" cy="982.8" r="0.7" fill="#fff" opacity="0.57"/><circle cx="1382.0" cy="751.3" r="0.35" fill="#cfd8e8" opacity="0.46"/><circle cx="912.1" cy="799.2" r="1.6" fill="#bcd6ff" opacity="0.66"/><circle cx="631.9" cy="798.1" r="0.35" fill="#fff" opacity="0.44"/><circle cx="308.4" cy="1040.6" r="0.7" fill="#fff" opacity="0.88"/><circle cx="849.2" cy="802.0" r="1.6" fill="#cfd8e8" opacity="0.29"/><circle cx="1068.0" cy="117.7" r="0.7" fill="#bcd6ff" opacity="0.43"/><circle cx="968.7" cy="495.5" r="0.35" fill="#fff" opacity="0.47"/><circle cx="888.9" cy="303.9" r="0.35" fill="#fff" opacity="0.80"/><circle cx="795.2" cy="556.0" r="1.1" fill="#cfd8e8" opacity="0.20"/><circle cx="304.3" cy="460.9" r="0.35" fill="#f5e4c2" opacity="0.87"/><circle cx="786.0" cy="396.0" r="0.7" fill="#fff" opacity="0.54"/><circle cx="1315.4" cy="107.4" r="0.35" fill="#cfd8e8" opacity="0.21"/><circle cx="558.1" cy="901.2" r="0.35" fill="#fff" opacity="0.39"/><circle cx="1637.0" cy="942.6" r="0.35" fill="#cfd8e8" opacity="0.29"/><circle cx="1542.5" cy="983.0" r="0.35" fill="#fff" opacity="0.64"/><circle cx="388.2" cy="993.1" r="0.7" fill="#f5e4c2" opacity="0.37"/><circle cx="1632.9" cy="580.3" r="0.7" fill="#f5e4c2" opacity="0.60"/><circle cx="1097.9" cy="682.3" r="0.7" fill="#a9b3c7" opacity="0.82"/><circle cx="1794.7" cy="482.9" r="0.35" fill="#fff" opacity="0.37"/><circle cx="1168.3" cy="589.5" r="1.6" fill="#fff" opacity="0.81"/><circle cx="1652.1" cy="56.9" r="0.35" fill="#cfd8e8" opacity="0.44"/><circle cx="178.4" cy="689.1" r="0.35" fill="#cfd8e8" opacity="0.55"/><circle cx="1336.7" cy="577.8" r="0.35" fill="#fff" opacity="0.25"/><circle cx="331.5" cy="723.8" r="0.7" fill="#f5e4c2" opacity="0.67"/><circle cx="1430.0" cy="745.7" r="0.35" fill="#a9b3c7" opacity="0.74"/><circle cx="786.8" cy="375.1" r="0.35" fill="#fff" opacity="0.69"/><circle cx="1082.4" cy="1095.4" r="0.7" fill="#cfd8e8" opacity="0.32"/><circle cx="447.1" cy="152.1" r="0.35" fill="#fff" opacity="0.31"/><circle cx="1674.9" cy="758.0" r="0.35" fill="#fff" opacity="0.79"/><circle cx="1551.5" cy="222.2" r="0.35" fill="#fff" opacity="0.41"/><circle cx="87.7" cy="957.1" r="0.35" fill="#f5e4c2" opacity="0.24"/><circle cx="600.7" cy="380.2" r="0.35" fill="#a9b3c7" opacity="0.84"/><circle cx="432.4" cy="952.4" r="0.35" fill="#fff" opacity="0.58"/><circle cx="1514.9" cy="1082.3" r="0.35" fill="#fff" opacity="0.21"/><circle cx="839.3" cy="179.8" r="0.35" fill="#fff" opacity="0.41"/><circle cx="1389.6" cy="270.9" r="0.35" fill="#cfd8e8" opacity="0.47"/><circle cx="1653.5" cy="589.8" r="0.35" fill="#fff" opacity="0.26"/><circle cx="1341.7" cy="277.8" r="0.35" fill="#a9b3c7" opacity="0.35"/><circle cx="381.2" cy="163.9" r="0.35" fill="#fff" opacity="0.35"/><circle cx="561.7" cy="523.1" r="0.7" fill="#cfd8e8" opacity="0.87"/><circle cx="64.2" cy="118.4" r="0.35" fill="#a9b3c7" opacity="0.75"/><circle cx="984.9" cy="670.5" r="0.35" fill="#cfd8e8" opacity="0.48"/><circle cx="1028.6" cy="156.1" r="0.7" fill="#cfd8e8" opacity="0.24"/><circle cx="1221.1" cy="1075.9" r="0.35" fill="#cfd8e8" opacity="0.82"/><circle cx="1274.2" cy="462.8" r="1.6" fill="#fff" opacity="0.24"/><circle cx="1141.9" cy="809.9" r="0.35" fill="#fff" opacity="0.20"/><circle cx="599.5" cy="77.1" r="0.35" fill="#cfd8e8" opacity="0.26"/><circle cx="1220.8" cy="504.1" r="0.7" fill="#a9b3c7" opacity="0.19"/><circle cx="1389.7" cy="386.4" r="0.7" fill="#cfd8e8" opacity="0.81"/><circle cx="477.3" cy="759.1" r="0.7" fill="#fff" opacity="0.84"/><circle cx="1076.1" cy="165.7" r="0.35" fill="#fff" opacity="0.67"/><circle cx="1043.6" cy="933.5" r="0.7" fill="#fff" opacity="0.51"/><circle cx="745.3" cy="1075.0" r="0.35" fill="#cfd8e8" opacity="0.86"/><circle cx="1795.7" cy="75.5" r="0.7" fill="#a9b3c7" opacity="0.24"/><circle cx="1532.8" cy="193.9" r="0.7" fill="#fff" opacity="0.23"/><circle cx="983.6" cy="111.7" r="0.35" fill="#fff" opacity="0.85"/><circle cx="676.4" cy="1024.5" r="0.7" fill="#fff" opacity="0.82"/><circle cx="258.8" cy="577.5" r="0.7" fill="#fff" opacity="0.23"/><circle cx="422.9" cy="939.0" r="0.35" fill="#a9b3c7" opacity="0.80"/><circle cx="1080.0" cy="347.6" r="0.35" fill="#cfd8e8" opacity="0.54"/><circle cx="792.8" cy="919.0" r="0.7" fill="#a9b3c7" opacity="0.57"/><circle cx="259.1" cy="180.2" r="0.35" fill="#fff" opacity="0.58"/><circle cx="1108.9" cy="748.6" r="0.35" fill="#a9b3c7" opacity="0.31"/><circle cx="432.5" cy="861.8" r="0.35" fill="#f5e4c2" opacity="0.23"/><circle cx="618.9" cy="889.5" r="0.7" fill="#cfd8e8" opacity="0.24"/><circle cx="1708.2" cy="646.9" r="0.35" fill="#fff" opacity="0.82"/><circle cx="938.1" cy="19.5" r="0.7" fill="#a9b3c7" opacity="0.86"/><circle cx="1204.0" cy="862.7" r="0.35" fill="#cfd8e8" opacity="0.74"/><circle cx="1507.3" cy="604.3" r="0.35" fill="#cfd8e8" opacity="0.37"/><circle cx="1076.4" cy="1085.5" r="0.35" fill="#cfd8e8" opacity="0.55"/><circle cx="918.9" cy="508.7" r="0.7" fill="#fff" opacity="0.57"/><circle cx="994.7" cy="661.6" r="0.7" fill="#fff" opacity="0.40"/><circle cx="806.0" cy="782.1" r="0.35" fill="#f5e4c2" opacity="0.80"/><circle cx="1486.8" cy="835.5" r="0.35" fill="#fff" opacity="0.26"/><circle cx="989.2" cy="876.2" r="0.7" fill="#a9b3c7" opacity="0.52"/><circle cx="752.3" cy="591.3" r="0.35" fill="#cfd8e8" opacity="0.69"/><circle cx="698.7" cy="68.3" r="1.1" fill="#bcd6ff" opacity="0.61"/><circle cx="770.0" cy="1024.3" r="0.35" fill="#fff" opacity="0.30"/><circle cx="1682.2" cy="836.9" r="0.35" fill="#cfd8e8" opacity="0.47"/><circle cx="613.4" cy="274.9" r="0.35" fill="#fff" opacity="0.54"/><circle cx="427.4" cy="317.3" r="0.35" fill="#cfd8e8" opacity="0.88"/><circle cx="485.2" cy="1096.9" r="0.35" fill="#fff" opacity="0.22"/><circle cx="486.2" cy="570.6" r="0.35" fill="#fff" opacity="0.39"/><circle cx="440.4" cy="308.9" r="0.35" fill="#fff" opacity="0.24"/><circle cx="869.2" cy="695.8" r="0.35" fill="#fff" opacity="0.80"/><circle cx="377.4" cy="60.1" r="0.35" fill="#fff" opacity="0.49"/><circle cx="1583.8" cy="11.8" r="0.35" fill="#fff" opacity="0.80"/><circle cx="496.2" cy="607.8" r="0.35" fill="#fff" opacity="0.62"/><circle cx="1100.2" cy="142.7" r="1.6" fill="#fff" opacity="0.52"/><circle cx="1120.0" cy="115.5" r="0.35" fill="#a9b3c7" opacity="0.63"/><circle cx="149.4" cy="819.5" r="0.7" fill="#fff" opacity="0.25"/><circle cx="1784.0" cy="792.8" r="0.35" fill="#bcd6ff" opacity="0.65"/><circle cx="731.5" cy="607.8" r="0.35" fill="#fff" opacity="0.54"/><circle cx="779.5" cy="78.4" r="0.7" fill="#fff" opacity="0.76"/><circle cx="598.0" cy="833.9" r="0.35" fill="#fff" opacity="0.79"/><circle cx="1619.0" cy="850.5" r="0.35" fill="#cfd8e8" opacity="0.52"/><circle cx="1772.2" cy="38.4" r="0.35" fill="#fff" opacity="0.63"/><circle cx="1655.6" cy="375.2" r="0.35" fill="#fff" opacity="0.74"/><circle cx="395.2" cy="8.3" r="1.1" fill="#f5e4c2" opacity="0.45"/><circle cx="1260.9" cy="1034.1" r="0.35" fill="#a9b3c7" opacity="0.85"/><circle cx="1196.0" cy="1050.9" r="0.7" fill="#fff" opacity="0.62"/><circle cx="482.9" cy="772.5" r="0.35" fill="#fff" opacity="0.19"/><circle cx="1106.0" cy="866.1" r="1.1" fill="#f5e4c2" opacity="0.68"/><circle cx="516.5" cy="580.4" r="0.35" fill="#cfd8e8" opacity="0.20"/><circle cx="915.1" cy="734.6" r="0.35" fill="#cfd8e8" opacity="0.70"/><circle cx="1611.4" cy="847.4" r="0.35" fill="#fff" opacity="0.46"/><circle cx="1396.7" cy="1063.4" r="0.7" fill="#fff" opacity="0.53"/><circle cx="859.1" cy="235.7" r="0.35" fill="#fff" opacity="0.84"/><circle cx="283.3" cy="939.4" r="0.7" fill="#fff" opacity="0.49"/><circle cx="799.6" cy="439.2" r="0.7" fill="#cfd8e8" opacity="0.77"/><circle cx="1511.7" cy="803.1" r="1.1" fill="#fff" opacity="0.35"/><circle cx="411.5" cy="110.6" r="0.35" fill="#fff" opacity="0.61"/><circle cx="681.6" cy="20.5" r="0.35" fill="#fff" opacity="0.64"/><circle cx="78.2" cy="297.3" r="0.35" fill="#f5e4c2" opacity="0.22"/><circle cx="1279.9" cy="1097.8" r="0.35" fill="#fff" opacity="0.87"/><circle cx="710.3" cy="1071.2" r="0.35" fill="#cfd8e8" opacity="0.56"/><circle cx="1734.7" cy="547.6" r="0.35" fill="#fff" opacity="0.65"/><circle cx="316.3" cy="652.6" r="0.35" fill="#fff" opacity="0.74"/><circle cx="513.3" cy="865.8" r="1.1" fill="#fff" opacity="0.51"/><circle cx="818.1" cy="34.8" r="0.7" fill="#cfd8e8" opacity="0.59"/><circle cx="1318.9" cy="377.8" r="0.35" fill="#f5e4c2" opacity="0.40"/><circle cx="466.3" cy="656.9" r="0.35" fill="#fff" opacity="0.46"/><circle cx="1711.4" cy="673.7" r="0.35" fill="#f5e4c2" opacity="0.79"/><circle cx="1584.0" cy="835.0" r="0.35" fill="#fff" opacity="0.86"/><circle cx="1592.1" cy="1067.3" r="0.35" fill="#fff" opacity="0.70"/><circle cx="1453.2" cy="380.5" r="0.7" fill="#fff" opacity="0.75"/><circle cx="1039.8" cy="676.6" r="1.1" fill="#fff" opacity="0.36"/><circle cx="873.8" cy="178.0" r="0.35" fill="#fff" opacity="0.56"/><circle cx="823.8" cy="373.7" r="1.1" fill="#a9b3c7" opacity="0.61"/><circle cx="905.1" cy="869.8" r="0.35" fill="#f5e4c2" opacity="0.81"/><circle cx="874.3" cy="843.2" r="0.35" fill="#a9b3c7" opacity="0.58"/><circle cx="601.7" cy="893.4" r="0.35" fill="#fff" opacity="0.24"/><circle cx="1327.8" cy="165.5" r="0.35" fill="#fff" opacity="0.59"/><circle cx="1567.2" cy="88.5" r="0.35" fill="#fff" opacity="0.73"/><circle cx="1729.3" cy="750.7" r="0.35" fill="#cfd8e8" opacity="0.30"/><circle cx="1627.2" cy="766.2" r="0.7" fill="#cfd8e8" opacity="0.44"/><circle cx="1768.9" cy="687.3" r="1.6" fill="#cfd8e8" opacity="0.32"/><circle cx="663.3" cy="59.5" r="1.6" fill="#fff" opacity="0.61"/><circle cx="1466.3" cy="68.6" r="0.7" fill="#a9b3c7" opacity="0.61"/><circle cx="519.0" cy="974.5" r="0.7" fill="#cfd8e8" opacity="0.33"/><circle cx="186.7" cy="1016.4" r="0.35" fill="#a9b3c7" opacity="0.53"/><circle cx="31.6" cy="304.1" r="0.7" fill="#cfd8e8" opacity="0.36"/><circle cx="213.7" cy="212.0" r="0.35" fill="#cfd8e8" opacity="0.53"/><circle cx="912.9" cy="465.5" r="0.35" fill="#fff" opacity="0.42"/><circle cx="1198.8" cy="426.1" r="0.7" fill="#a9b3c7" opacity="0.79"/><circle cx="704.6" cy="33.0" r="0.7" fill="#fff" opacity="0.56"/><circle cx="616.1" cy="64.5" r="0.7" fill="#cfd8e8" opacity="0.74"/><circle cx="392.0" cy="462.4" r="0.7" fill="#fff" opacity="0.28"/><circle cx="1628.7" cy="776.5" r="0.35" fill="#cfd8e8" opacity="0.87"/><circle cx="6.9" cy="481.9" r="0.7" fill="#fff" opacity="0.42"/><circle cx="759.4" cy="28.4" r="0.35" fill="#fff" opacity="0.78"/><circle cx="564.1" cy="321.0" r="0.7" fill="#fff" opacity="0.60"/><circle cx="1795.9" cy="1033.4" r="0.35" fill="#fff" opacity="0.48"/><circle cx="1434.9" cy="1048.1" r="1.1" fill="#a9b3c7" opacity="0.25"/><circle cx="1531.0" cy="926.0" r="0.35" fill="#cfd8e8" opacity="0.39"/><circle cx="615.5" cy="423.5" r="0.35" fill="#fff" opacity="0.56"/><circle cx="518.7" cy="1076.7" r="0.35" fill="#fff" opacity="0.60"/><circle cx="1317.3" cy="2.5" r="0.35" fill="#bcd6ff" opacity="0.36"/><circle cx="149.0" cy="73.8" r="0.35" fill="#f5e4c2" opacity="0.74"/><circle cx="60.8" cy="438.5" r="0.7" fill="#cfd8e8" opacity="0.27"/><circle cx="1247.4" cy="754.8" r="0.35" fill="#fff" opacity="0.42"/><circle cx="614.7" cy="1026.7" r="0.35" fill="#fff" opacity="0.62"/><circle cx="492.2" cy="333.5" r="0.35" fill="#f5e4c2" opacity="0.86"/><circle cx="1211.3" cy="116.4" r="0.35" fill="#f5e4c2" opacity="0.20"/><circle cx="1344.8" cy="760.6" r="1.1" fill="#f5e4c2" opacity="0.83"/><circle cx="882.2" cy="333.7" r="0.35" fill="#cfd8e8" opacity="0.77"/><circle cx="1752.4" cy="460.3" r="0.35" fill="#fff" opacity="0.65"/><circle cx="1255.4" cy="405.3" r="0.35" fill="#cfd8e8" opacity="0.55"/><circle cx="920.3" cy="849.3" r="0.35" fill="#cfd8e8" opacity="0.29"/><circle cx="1225.4" cy="907.3" r="1.1" fill="#a9b3c7" opacity="0.60"/><circle cx="65.6" cy="976.6" r="1.6" fill="#cfd8e8" opacity="0.25"/><circle cx="1444.6" cy="5.3" r="0.35" fill="#fff" opacity="0.74"/><circle cx="932.8" cy="713.7" r="1.6" fill="#cfd8e8" opacity="0.35"/><circle cx="1473.3" cy="937.8" r="0.35" fill="#f5e4c2" opacity="0.41"/><circle cx="1493.9" cy="925.5" r="0.7" fill="#cfd8e8" opacity="0.53"/><circle cx="808.4" cy="691.8" r="0.35" fill="#fff" opacity="0.43"/><circle cx="891.8" cy="419.3" r="1.6" fill="#fff" opacity="0.71"/><circle cx="87.0" cy="461.3" r="0.35" fill="#cfd8e8" opacity="0.37"/><circle cx="1034.7" cy="996.0" r="0.35" fill="#fff" opacity="0.64"/><circle cx="1113.1" cy="129.6" r="0.35" fill="#fff" opacity="0.66"/><circle cx="1258.3" cy="42.8" r="0.35" fill="#fff" opacity="0.61"/><circle cx="1784.8" cy="87.1" r="0.35" fill="#cfd8e8" opacity="0.82"/><circle cx="371.1" cy="509.9" r="0.7" fill="#fff" opacity="0.41"/><circle cx="1767.4" cy="292.7" r="0.35" fill="#fff" opacity="0.45"/><circle cx="1051.9" cy="818.0" r="0.35" fill="#cfd8e8" opacity="0.68"/><circle cx="213.1" cy="637.0" r="0.35" fill="#f5e4c2" opacity="0.56"/><circle cx="1493.5" cy="6.4" r="0.35" fill="#fff" opacity="0.35"/><circle cx="506.5" cy="5.9" r="0.35" fill="#fff" opacity="0.54"/><circle cx="1367.7" cy="64.6" r="0.35" fill="#f5e4c2" opacity="0.74"/><circle cx="450.1" cy="260.6" r="0.7" fill="#cfd8e8" opacity="0.51"/><circle cx="1448.1" cy="740.0" r="1.1" fill="#fff" opacity="0.30"/><circle cx="1581.8" cy="57.1" r="0.35" fill="#cfd8e8" opacity="0.48"/><circle cx="741.1" cy="1020.4" r="0.35" fill="#fff" opacity="0.38"/><circle cx="507.2" cy="897.2" r="0.35" fill="#a9b3c7" opacity="0.34"/><circle cx="964.1" cy="73.1" r="0.35" fill="#cfd8e8" opacity="0.69"/><circle cx="471.6" cy="659.1" r="0.7" fill="#fff" opacity="0.46"/><circle cx="1431.4" cy="714.1" r="0.35" fill="#fff" opacity="0.71"/><circle cx="894.8" cy="229.2" r="0.7" fill="#fff" opacity="0.24"/><circle cx="1757.3" cy="340.8" r="0.7" fill="#a9b3c7" opacity="0.39"/><circle cx="854.2" cy="684.0" r="0.35" fill="#fff" opacity="0.39"/><circle cx="1380.4" cy="992.4" r="0.35" fill="#fff" opacity="0.50"/><circle cx="137.9" cy="1014.4" r="0.35" fill="#fff" opacity="0.54"/><circle cx="791.5" cy="815.3" r="1.6" fill="#a9b3c7" opacity="0.57"/><circle cx="823.0" cy="46.1" r="0.35" fill="#cfd8e8" opacity="0.70"/><circle cx="1743.2" cy="266.6" r="0.35" fill="#fff" opacity="0.44"/><circle cx="173.7" cy="756.0" r="1.6" fill="#fff" opacity="0.27"/><circle cx="337.2" cy="620.9" r="0.7" fill="#fff" opacity="0.29"/><circle cx="1028.9" cy="313.6" r="0.35" fill="#fff" opacity="0.73"/><circle cx="1660.8" cy="48.7" r="0.7" fill="#cfd8e8" opacity="0.78"/><circle cx="527.9" cy="852.9" r="0.35" fill="#fff" opacity="0.29"/><circle cx="790.4" cy="491.8" r="0.35" fill="#fff" opacity="0.59"/><circle cx="38.8" cy="20.9" r="0.35" fill="#bcd6ff" opacity="0.32"/><circle cx="856.5" cy="1064.1" r="0.7" fill="#fff" opacity="0.56"/><circle cx="1093.7" cy="724.5" r="0.35" fill="#cfd8e8" opacity="0.40"/><circle cx="184.0" cy="632.9" r="0.35" fill="#cfd8e8" opacity="0.55"/><circle cx="549.4" cy="470.4" r="0.35" fill="#fff" opacity="0.40"/><circle cx="1348.0" cy="859.9" r="1.6" fill="#cfd8e8" opacity="0.29"/><circle cx="1377.4" cy="61.3" r="1.1" fill="#f5e4c2" opacity="0.54"/><circle cx="487.6" cy="1007.7" r="0.35" fill="#fff" opacity="0.70"/><circle cx="222.8" cy="310.7" r="0.7" fill="#cfd8e8" opacity="0.27"/><circle cx="295.3" cy="851.7" r="0.35" fill="#fff" opacity="0.50"/><circle cx="574.6" cy="678.3" r="0.35" fill="#fff" opacity="0.47"/><circle cx="1000.1" cy="1049.3" r="1.6" fill="#cfd8e8" opacity="0.30"/><circle cx="1175.7" cy="481.0" r="0.35" fill="#fff" opacity="0.53"/><circle cx="106.4" cy="138.1" r="0.35" fill="#a9b3c7" opacity="0.60"/><circle cx="1451.1" cy="598.7" r="0.35" fill="#fff" opacity="0.47"/><circle cx="171.4" cy="1039.7" r="0.35" fill="#fff" opacity="0.88"/><circle cx="575.3" cy="895.8" r="0.35" fill="#a9b3c7" opacity="0.57"/><circle cx="354.8" cy="806.7" r="0.7" fill="#fff" opacity="0.23"/><circle cx="235.9" cy="519.3" r="0.35" fill="#a9b3c7" opacity="0.32"/><circle cx="1695.6" cy="984.6" r="0.35" fill="#a9b3c7" opacity="0.34"/><circle cx="153.7" cy="57.6" r="0.7" fill="#cfd8e8" opacity="0.35"/><circle cx="628.8" cy="114.6" r="0.35" fill="#fff" opacity="0.30"/><circle cx="840.4" cy="916.3" r="0.35" fill="#fff" opacity="0.28"/><circle cx="1506.9" cy="90.1" r="1.1" fill="#cfd8e8" opacity="0.73"/><circle cx="118.8" cy="699.9" r="0.35" fill="#fff" opacity="0.54"/><circle cx="1753.5" cy="766.0" r="0.35" fill="#fff" opacity="0.24"/><circle cx="1340.8" cy="1023.0" r="0.35" fill="#fff" opacity="0.33"/><circle cx="751.0" cy="154.2" r="0.7" fill="#cfd8e8" opacity="0.71"/><circle cx="176.2" cy="300.2" r="0.7" fill="#fff" opacity="0.27"/><circle cx="1432.5" cy="626.1" r="0.7" fill="#fff" opacity="0.58"/><circle cx="1105.4" cy="820.7" r="0.35" fill="#bcd6ff" opacity="0.28"/><circle cx="547.3" cy="188.9" r="0.7" fill="#fff" opacity="0.45"/><circle cx="398.8" cy="603.0" r="0.35" fill="#fff" opacity="0.74"/><circle cx="694.8" cy="360.2" r="0.35" fill="#fff" opacity="0.82"/><circle cx="1419.0" cy="853.0" r="0.35" fill="#fff" opacity="0.77"/><circle cx="6.5" cy="741.8" r="0.35" fill="#fff" opacity="0.21"/><circle cx="857.9" cy="634.1" r="0.35" fill="#a9b3c7" opacity="0.52"/><circle cx="1037.2" cy="385.3" r="0.35" fill="#fff" opacity="0.44"/><circle cx="603.8" cy="285.8" r="0.35" fill="#a9b3c7" opacity="0.42"/><circle cx="986.3" cy="380.0" r="0.35" fill="#a9b3c7" opacity="0.72"/><circle cx="920.2" cy="448.1" r="0.7" fill="#cfd8e8" opacity="0.68"/><circle cx="1710.3" cy="369.8" r="0.35" fill="#fff" opacity="0.48"/><circle cx="375.9" cy="399.7" r="0.35" fill="#a9b3c7" opacity="0.28"/><circle cx="378.9" cy="520.2" r="0.35" fill="#cfd8e8" opacity="0.30"/><circle cx="888.8" cy="804.4" r="0.35" fill="#f5e4c2" opacity="0.51"/><circle cx="960.3" cy="69.7" r="0.7" fill="#fff" opacity="0.49"/><circle cx="1198.0" cy="347.7" r="0.7" fill="#f5e4c2" opacity="0.64"/><circle cx="1014.4" cy="949.5" r="0.35" fill="#fff" opacity="0.44"/><circle cx="1495.3" cy="206.6" r="0.35" fill="#a9b3c7" opacity="0.29"/><circle cx="132.4" cy="967.4" r="1.1" fill="#a9b3c7" opacity="0.84"/><circle cx="86.2" cy="42.1" r="0.35" fill="#fff" opacity="0.29"/><circle cx="1518.4" cy="198.4" r="0.35" fill="#cfd8e8" opacity="0.33"/><circle cx="375.6" cy="783.4" r="0.7" fill="#cfd8e8" opacity="0.44"/><circle cx="945.6" cy="151.7" r="0.35" fill="#fff" opacity="0.43"/><circle cx="886.2" cy="834.7" r="0.35" fill="#fff" opacity="0.68"/><circle cx="1040.6" cy="173.9" r="0.35" fill="#f5e4c2" opacity="0.34"/><circle cx="1438.7" cy="248.5" r="0.35" fill="#fff" opacity="0.29"/><circle cx="1065.4" cy="811.1" r="0.7" fill="#a9b3c7" opacity="0.22"/><circle cx="1311.5" cy="746.5" r="0.35" fill="#fff" opacity="0.88"/><circle cx="74.2" cy="1030.6" r="0.7" fill="#fff" opacity="0.22"/><circle cx="59.3" cy="513.4" r="0.7" fill="#fff" opacity="0.19"/><circle cx="742.0" cy="658.3" r="0.7" fill="#cfd8e8" opacity="0.52"/><circle cx="1576.6" cy="185.4" r="0.35" fill="#a9b3c7" opacity="0.55"/><circle cx="585.8" cy="646.7" r="0.35" fill="#fff" opacity="0.54"/><circle cx="1314.1" cy="697.6" r="1.1" fill="#cfd8e8" opacity="0.40"/><circle cx="705.2" cy="656.9" r="0.7" fill="#fff" opacity="0.40"/><circle cx="147.7" cy="701.8" r="0.35" fill="#fff" opacity="0.29"/><circle cx="1529.4" cy="365.4" r="1.1" fill="#cfd8e8" opacity="0.79"/><circle cx="791.2" cy="645.6" r="0.7" fill="#f5e4c2" opacity="0.47"/><circle cx="122.8" cy="343.7" r="0.35" fill="#a9b3c7" opacity="0.86"/><circle cx="1532.3" cy="334.4" r="0.7" fill="#fff" opacity="0.84"/><circle cx="917.9" cy="665.5" r="0.7" fill="#cfd8e8" opacity="0.88"/><circle cx="1443.8" cy="233.2" r="0.35" fill="#bcd6ff" opacity="0.47"/><circle cx="1288.4" cy="430.4" r="0.35" fill="#cfd8e8" opacity="0.39"/><circle cx="1092.8" cy="584.0" r="0.7" fill="#cfd8e8" opacity="0.25"/><circle cx="469.9" cy="124.5" r="0.35" fill="#fff" opacity="0.64"/><circle cx="972.7" cy="455.0" r="0.35" fill="#cfd8e8" opacity="0.18"/><circle cx="834.9" cy="179.9" r="0.35" fill="#fff" opacity="0.43"/><circle cx="478.1" cy="794.2" r="1.1" fill="#fff" opacity="0.41"/><circle cx="978.2" cy="821.7" r="1.1" fill="#bcd6ff" opacity="0.43"/><circle cx="1136.7" cy="915.0" r="0.7" fill="#cfd8e8" opacity="0.79"/><circle cx="846.2" cy="411.4" r="0.7" fill="#cfd8e8" opacity="0.66"/><circle cx="691.5" cy="256.2" r="0.35" fill="#f5e4c2" opacity="0.54"/><circle cx="1750.6" cy="1053.6" r="0.7" fill="#cfd8e8" opacity="0.79"/><circle cx="949.4" cy="318.0" r="0.35" fill="#cfd8e8" opacity="0.36"/><circle cx="1312.4" cy="57.8" r="1.1" fill="#bcd6ff" opacity="0.28"/><circle cx="214.5" cy="117.3" r="0.35" fill="#fff" opacity="0.35"/><circle cx="852.9" cy="363.7" r="0.7" fill="#cfd8e8" opacity="0.42"/><circle cx="574.9" cy="861.0" r="0.7" fill="#a9b3c7" opacity="0.22"/><circle cx="1446.9" cy="621.2" r="0.35" fill="#fff" opacity="0.47"/><circle cx="1570.8" cy="200.3" r="0.35" fill="#cfd8e8" opacity="0.25"/><circle cx="457.9" cy="823.1" r="1.1" fill="#fff" opacity="0.65"/><circle cx="1524.5" cy="808.9" r="0.7" fill="#cfd8e8" opacity="0.52"/><circle cx="124.0" cy="875.9" r="0.35" fill="#cfd8e8" opacity="0.30"/><circle cx="1432.1" cy="15.6" r="1.6" fill="#fff" opacity="0.88"/><circle cx="1653.8" cy="428.3" r="0.7" fill="#a9b3c7" opacity="0.61"/><circle cx="253.2" cy="863.3" r="0.7" fill="#fff" opacity="0.33"/><circle cx="821.4" cy="903.0" r="0.7" fill="#fff" opacity="0.64"/><circle cx="1133.9" cy="900.0" r="0.7" fill="#fff" opacity="0.81"/><circle cx="1636.5" cy="780.1" r="0.35" fill="#fff" opacity="0.50"/><circle cx="1527.2" cy="170.1" r="0.35" fill="#fff" opacity="0.45"/><circle cx="561.1" cy="792.9" r="0.35" fill="#cfd8e8" opacity="0.19"/><circle cx="222.9" cy="721.5" r="0.7" fill="#fff" opacity="0.48"/><circle cx="1625.6" cy="789.5" r="0.7" fill="#fff" opacity="0.51"/><circle cx="331.4" cy="356.8" r="0.35" fill="#cfd8e8" opacity="0.67"/><circle cx="1196.4" cy="91.1" r="0.35" fill="#f5e4c2" opacity="0.82"/><circle cx="32.8" cy="104.2" r="0.7" fill="#fff" opacity="0.20"/><circle cx="498.6" cy="695.4" r="0.7" fill="#fff" opacity="0.20"/><circle cx="635.3" cy="604.2" r="1.6" fill="#cfd8e8" opacity="0.79"/><circle cx="1696.9" cy="544.1" r="0.35" fill="#fff" opacity="0.77"/><circle cx="1408.3" cy="976.6" r="0.35" fill="#fff" opacity="0.69"/><circle cx="953.2" cy="826.1" r="0.7" fill="#fff" opacity="0.82"/><circle cx="595.9" cy="960.5" r="0.35" fill="#fff" opacity="0.27"/><circle cx="951.0" cy="308.3" r="0.7" fill="#fff" opacity="0.54"/><circle cx="745.4" cy="820.0" r="0.7" fill="#bcd6ff" opacity="0.48"/><circle cx="442.1" cy="813.9" r="0.35" fill="#fff" opacity="0.57"/><circle cx="1129.9" cy="61.5" r="0.35" fill="#fff" opacity="0.86"/><circle cx="399.8" cy="953.5" r="1.1" fill="#fff" opacity="0.60"/><g opacity="0.55"><circle cx="934.6" cy="690.8" r="1.5" fill="#fff"/><line x1="930.6" y1="690.8" x2="938.6" y2="690.8" stroke="#fff" stroke-width="0.4" opacity="0.6"/><line x1="934.6" y1="686.8" x2="934.6" y2="694.8" stroke="#fff" stroke-width="0.4" opacity="0.6"/></g><g opacity="0.55"><circle cx="841.3" cy="791.1" r="1.5" fill="#fff"/><line x1="837.3" y1="791.1" x2="845.3" y2="791.1" stroke="#fff" stroke-width="0.4" opacity="0.6"/><line x1="841.3" y1="787.1" x2="841.3" y2="795.1" stroke="#fff" stroke-width="0.4" opacity="0.6"/></g><g opacity="0.55"><circle cx="1344.2" cy="458.1" r="1.5" fill="#fff"/><line x1="1340.2" y1="458.1" x2="1348.2" y2="458.1" stroke="#fff" stroke-width="0.4" opacity="0.6"/><line x1="1344.2" y1="454.1" x2="1344.2" y2="462.1" stroke="#fff" stroke-width="0.4" opacity="0.6"/></g><g opacity="0.55"><circle cx="391.2" cy="1089.5" r="1.5" fill="#fff"/><line x1="387.2" y1="1089.5" x2="395.2" y2="1089.5" stroke="#fff" stroke-width="0.4" opacity="0.6"/><line x1="391.2" y1="1085.5" x2="391.2" y2="1093.5" stroke="#fff" stroke-width="0.4" opacity="0.6"/></g><g opacity="0.55"><circle cx="1794.0" cy="978.6" r="1.5" fill="#fff"/><line x1="1790" y1="978.6" x2="1798" y2="978.6" stroke="#fff" stroke-width="0.4" opacity="0.6"/><line x1="1794.0" y1="974.6" x2="1794.0" y2="982.6" stroke="#fff" stroke-width="0.4" opacity="0.6"/></g><g opacity="0.55"><circle cx="798.4" cy="836.4" r="1.5" fill="#fff"/><line x1="794.4" y1="836.4" x2="802.4" y2="836.4" stroke="#fff" stroke-width="0.4" opacity="0.6"/><line x1="798.4" y1="832.4" x2="798.4" y2="840.4" stroke="#fff" stroke-width="0.4" opacity="0.6"/></g><g opacity="0.55"><circle cx="1628.6" cy="853.2" r="1.5" fill="#fff"/><line x1="1624.6" y1="853.2" x2="1632.6" y2="853.2" stroke="#fff" stroke-width="0.4" opacity="0.6"/><line x1="1628.6" y1="849.2" x2="1628.6" y2="857.2" stroke="#fff" stroke-width="0.4" opacity="0.6"/></g></svg>